HIERARCHY
ROOT Hips
{
    OFFSET   0.000000   0.000000   0.000000
    CHANNELS 6 Xposition Yposition Zposition Zrotation Xrotation Yrotation
    JOINT Chest
    {
        OFFSET   0.000000   8.007240   0.000000
        CHANNELS 3 Zrotation Xrotation Yrotation
        JOINT Chest2
        {
            OFFSET   0.000000  22.077100   0.000000
            CHANNELS 3 Zrotation Xrotation Yrotation
            JOINT Neck
            {
                OFFSET   0.000000  23.254800   0.000000
                CHANNELS 3 Zrotation Xrotation Yrotation
                JOINT Head
                {
                    OFFSET   0.000000  14.370000   1.956600
                    CHANNELS 3 Zrotation Xrotation Yrotation
                    End Site
                    {
                        OFFSET   0.000000  19.566000   0.000000
                    }
                }
            }
            JOINT LeftCollar
            {
                OFFSET   3.911900  19.017000  -0.467064
                CHANNELS 3 Zrotation Xrotation Yrotation
                JOINT LeftShoulder
                {
                    OFFSET  10.383700   0.000000   0.000000
                    CHANNELS 3 Zrotation Xrotation Yrotation
                    JOINT LeftElbow
                    {
                        OFFSET  26.662100   0.001476   0.000517
                        CHANNELS 3 Zrotation Xrotation Yrotation
                        JOINT LeftWrist
                        {
                            OFFSET  28.869000  -0.000025  -0.000106
                            CHANNELS 3 Zrotation Xrotation Yrotation
                            JOINT LeftFinger0
                            {
                                OFFSET   2.044660  -2.323460   3.252850
                                CHANNELS 3 Zrotation Xrotation Yrotation
                                JOINT LeftFinger01
                                {
                                    OFFSET   3.088130   0.000000   0.000000
                                    CHANNELS 3 Zrotation Xrotation Yrotation
                                    JOINT LeftFinger02
                                    {
                                        OFFSET   2.639460   0.000000   0.000000
                                        CHANNELS 3 Zrotation Xrotation Yrotation
                                        End Site
                                        {
                                            OFFSET   2.582190   0.000000   0.000000
                                        }
                                    }
                                }
                            }
                            JOINT LeftFinger1
                            {
                                OFFSET   8.364480   0.000000   3.252850
                                CHANNELS 3 Zrotation Xrotation Yrotation
                                JOINT LeftFinger11
                                {
                                    OFFSET   4.646930   0.000000   0.000000
                                    CHANNELS 3 Zrotation Xrotation Yrotation
                                    JOINT LeftFinger12
                                    {
                                        OFFSET   2.323460   0.000000   0.000000
                                        CHANNELS 3 Zrotation Xrotation Yrotation
                                        End Site
                                        {
                                            OFFSET   2.273050   0.000000   0.000000
                                        }
                                    }
                                }
                            }
                            JOINT LeftFinger2
                            {
                                OFFSET   8.364490   0.000015   1.078090
                                CHANNELS 3 Zrotation Xrotation Yrotation
                                JOINT LeftFinger21
                                {
                                    OFFSET   5.111620   0.000000   0.000000
                                    CHANNELS 3 Zrotation Xrotation Yrotation
                                    JOINT LeftFinger22
                                    {
                                        OFFSET   2.788160   0.000016   0.000000
                                        CHANNELS 3 Zrotation Xrotation Yrotation
                                        End Site
                                        {
                                            OFFSET   2.727660   0.000000   0.000000
                                        }
                                    }
                                }
                            }
                            JOINT LeftFinger3
                            {
                                OFFSET   7.899780   0.000017  -1.078090
                                CHANNELS 3 Zrotation Xrotation Yrotation
                                JOINT LeftFinger31
                                {
                                    OFFSET   4.646930   0.000000   0.000000
                                    CHANNELS 3 Zrotation Xrotation Yrotation
                                    JOINT LeftFinger32
                                    {
                                        OFFSET   2.323470   0.000000   0.000000
                                        CHANNELS 3 Zrotation Xrotation Yrotation
                                        End Site
                                        {
                                            OFFSET   2.273050   0.000000   0.000000
                                        }
                                    }
                                }
                            }
                            JOINT LeftFinger4
                            {
                                OFFSET   7.435090   0.000000  -3.252850
                                CHANNELS 3 Zrotation Xrotation Yrotation
                                JOINT LeftFinger41
                                {
                                    OFFSET   3.717550   0.000000   0.000000
                                    CHANNELS 3 Zrotation Xrotation Yrotation
                                    JOINT LeftFinger42
                                    {
                                        OFFSET   1.858770   0.000000   0.000000
                                        CHANNELS 3 Zrotation Xrotation Yrotation
                                        End Site
                                        {
                                            OFFSET   1.818440   0.000000   0.000000
                                        }
                                    }
                                }
                            }
                        }
                    }
                }
            }
            JOINT RightCollar
            {
                OFFSET  -3.911900  19.017000  -0.467063
                CHANNELS 3 Zrotation Xrotation Yrotation
                JOINT RightShoulder
                {
                    OFFSET -10.383700   0.000019   0.000000
                    CHANNELS 3 Zrotation Xrotation Yrotation
                    JOINT RightElbow
                    {
                        OFFSET -26.662100   0.001175   0.000102
                        CHANNELS 3 Zrotation Xrotation Yrotation
                        JOINT RightWrist
                        {
                            OFFSET -28.869000   0.000016  -0.000079
                            CHANNELS 3 Zrotation Xrotation Yrotation
                            JOINT RightFinger0
                            {
                                OFFSET  -2.044660  -2.323490   3.252850
                                CHANNELS 3 Zrotation Xrotation Yrotation
                                JOINT RightFinger01
                                {
                                    OFFSET  -3.088140   0.000000   0.000000
                                    CHANNELS 3 Zrotation Xrotation Yrotation
                                    JOINT RightFinger02
                                    {
                                        OFFSET  -2.639460   0.000000   0.000000
                                        CHANNELS 3 Zrotation Xrotation Yrotation
                                        End Site
                                        {
                                            OFFSET  -2.582190   0.000000   0.000000
                                        }
                                    }
                                }
                            }
                            JOINT RightFinger1
                            {
                                OFFSET  -8.364480   0.000000   3.252850
                                CHANNELS 3 Zrotation Xrotation Yrotation
                                JOINT RightFinger11
                                {
                                    OFFSET  -4.646930   0.000000   0.000000
                                    CHANNELS 3 Zrotation Xrotation Yrotation
                                    JOINT RightFinger12
                                    {
                                        OFFSET  -2.323470   0.000000   0.000000
                                        CHANNELS 3 Zrotation Xrotation Yrotation
                                        End Site
                                        {
                                            OFFSET  -2.273050   0.000000   0.000000
                                        }
                                    }
                                }
                            }
                            JOINT RightFinger2
                            {
                                OFFSET  -8.364480   0.000000   1.078090
                                CHANNELS 3 Zrotation Xrotation Yrotation
                                JOINT RightFinger21
                                {
                                    OFFSET  -5.111620   0.000000   0.000000
                                    CHANNELS 3 Zrotation Xrotation Yrotation
                                    JOINT RightFinger22
                                    {
                                        OFFSET  -2.788160   0.000000   0.000000
                                        CHANNELS 3 Zrotation Xrotation Yrotation
                                        End Site
                                        {
                                            OFFSET  -2.727660   0.000000   0.000000
                                        }
                                    }
                                }
                            }
                            JOINT RightFinger3
                            {
                                OFFSET  -7.899780   0.000000  -1.078090
                                CHANNELS 3 Zrotation Xrotation Yrotation
                                JOINT RightFinger31
                                {
                                    OFFSET  -4.646930   0.000000   0.000000
                                    CHANNELS 3 Zrotation Xrotation Yrotation
                                    JOINT RightFinger32
                                    {
                                        OFFSET  -2.323470   0.000000   0.000000
                                        CHANNELS 3 Zrotation Xrotation Yrotation
                                        End Site
                                        {
                                            OFFSET  -2.273050   0.000000   0.000000
                                        }
                                    }
                                }
                            }
                            JOINT RightFinger4
                            {
                                OFFSET  -7.435090   0.000000  -3.252850
                                CHANNELS 3 Zrotation Xrotation Yrotation
                                JOINT RightFinger41
                                {
                                    OFFSET  -3.717550   0.000000   0.000000
                                    CHANNELS 3 Zrotation Xrotation Yrotation
                                    JOINT RightFinger42
                                    {
                                        OFFSET  -1.858770   0.000000   0.000000
                                        CHANNELS 3 Zrotation Xrotation Yrotation
                                        End Site
                                        {
                                            OFFSET  -1.818440   0.000000   0.000000
                                        }
                                    }
                                }
                            }
                        }
                    }
                }
            }
        }
    }
    JOINT LeftHip
    {
        OFFSET   9.783040   0.000000   0.000000
        CHANNELS 3 Zrotation Xrotation Yrotation
        JOINT LeftKnee
        {
            OFFSET   0.000032 -41.789100  -0.002222
            CHANNELS 3 Zrotation Xrotation Yrotation
            JOINT LeftAnkle
            {
                OFFSET   0.000087 -41.133200  -0.000135
                CHANNELS 3 Zrotation Xrotation Yrotation
                JOINT LeftToe
                {
                    OFFSET   0.000000  -6.358960  14.674500
                    CHANNELS 3 Zrotation Xrotation Yrotation
                    End Site
                    {
                        OFFSET   0.000000   0.000000   3.913200
                    }
                }
            }
        }
    }
    JOINT RightHip
    {
        OFFSET  -9.783040   0.000000   0.000000
        CHANNELS 3 Zrotation Xrotation Yrotation
        JOINT RightKnee
        {
            OFFSET   0.000047 -41.789100  -0.000896
            CHANNELS 3 Zrotation Xrotation Yrotation
            JOINT RightAnkle
            {
                OFFSET  -0.000117 -41.133300  -0.000248
                CHANNELS 3 Zrotation Xrotation Yrotation
                JOINT RightToe
                {
                    OFFSET   0.000000  -6.358970  14.674500
                    CHANNELS 3 Zrotation Xrotation Yrotation
                    End Site
                    {
                        OFFSET   0.000000   0.000000   3.913200
                    }
                }
            }
        }
    }
}
MOTION
Frames: 4
Frame Time:   0.016667
  0.672144  89.578600  -1.817040  -1.774530  -3.818220   0.386938   1.309580   3.402830  -0.563031   2.659670   6.791690  -1.207170   0.322748  -1.134880   0.003804   0.532935  -2.297160   1.488520  -7.021520   2.630870   0.564625 -69.495200  12.332200  -5.794370  -3.593070  -8.006420  -9.024180   7.963490 -13.184500  11.397500  38.601400  19.887200 -58.767600 -19.017800   0.005705   0.002029  -4.501420   0.003179   0.001030 -24.037500   4.543440 -10.067800 -19.994800  -0.006390  -0.001814 -13.996400   0.007103  -0.006243 -24.617600   2.713700  -5.891020 -24.757500  -0.003738  -0.001293 -16.488500  -0.002121  -0.001559 -24.675700   0.873609  -1.899880 -24.690100  -0.000497  -0.004441 -16.443800   0.007263  -0.000829 -23.762800   0.550296  -1.249700 -35.653200  -0.002595   0.011688 -23.745000  -0.001670   0.005805   7.398560  -0.943777   6.899530  70.516900   8.109580  -0.295587   2.449930  -9.295170   6.541120 -14.496000 -16.540000   4.056480 -44.269700  29.751400  59.366700  20.760400   0.007958  -0.007168   5.380190   0.002537  -0.002242  25.754800   3.810710   7.860420  21.286000   0.005725   0.000254  14.900200   0.006300  -0.003691  26.168000   3.866260   7.819970  26.431200   0.011307  -0.002746  17.603200   0.006857  -0.005444  26.915600   1.371270   2.695100  26.947900   0.007953   0.002359  17.947300   0.005639  -0.005227  27.524300  -0.504826  -0.968495  41.292700   0.001669  -0.011122  27.500900   0.005567  -0.007924   3.032820   6.342170   2.950360   0.508584   0.517808  11.791200  -3.065130  -1.797370   4.552310  -0.000000   0.000000  -0.000000   0.323145   1.944610  -5.402380   1.387230   4.296950  -3.051520  -3.993640  -1.869980  -1.798420   0.000000   0.000000   0.000000
  0.662639  89.578600  -1.810430  -1.773520  -3.831860   0.400418   1.309640   3.412790  -0.563176   2.659920   6.811600  -1.207780   0.322619  -1.135100   0.003806   0.532997  -2.297530   1.503840  -7.022830   2.630840   0.564915 -69.490800  12.344200  -5.810990  -3.594260  -8.013890  -9.024260   7.962700 -13.184100  11.394500  38.597000  19.874100 -58.757300 -19.017800   0.005703   0.002020  -4.503740   0.003182   0.001025 -24.024600   4.543360 -10.073500 -19.984300  -0.006394  -0.001812 -13.989000   0.007097  -0.006241 -24.626400   2.713810  -5.885680 -24.766200  -0.003743  -0.001294 -16.494300  -0.002124  -0.001561 -24.669100   0.873648  -1.899980 -24.683500  -0.000501  -0.004444 -16.439400   0.007261  -0.000825 -23.758000   0.544869  -1.237680 -35.645900  -0.002592   0.011691 -23.740200  -0.001666   0.005804   7.398630  -0.943809   6.899700  70.502900   8.121030  -0.287840   2.456360  -9.309790   6.531740 -14.474100 -16.542900   4.056540 -44.260500  29.752000  59.383300  20.775600   0.007958  -0.007166   5.386350   0.002540  -0.002233  25.762600   3.810120   7.853770  21.292100   0.005719   0.000252  14.904600   0.006298  -0.003691  26.171700   3.865580   7.819960  26.435300   0.011306  -0.002749  17.605900   0.006850  -0.005442  26.924600   1.371270   2.695300  26.956900   0.007949   0.002356  17.953300   0.005633  -0.005226  27.535300  -0.504912  -0.968696  41.309300   0.001662  -0.011123  27.512000   0.005560  -0.007920   3.038630   6.350510   2.950470   0.508406   0.534720  11.787700  -3.072530  -1.804820   4.541190  -0.000000   0.000000   0.000000   0.325398   2.031990  -5.402190   1.392970   4.235030  -3.054790  -3.998620  -1.875670  -1.808290  -0.000000   0.000000   0.000000
  0.646832  89.578600  -1.799630  -1.771710  -3.853340   0.424625   1.309760   3.428760  -0.563324   2.660430   6.843520  -1.208420   0.322489  -1.135320   0.003809   0.533419  -2.297900   1.528150  -7.026330   2.630800   0.565204 -69.483400  12.366200  -5.837160  -3.596520  -8.028000  -9.024500   7.960840 -13.183800  11.386800  38.592600  19.860900 -58.747000 -19.017900   0.005700   0.002008  -4.508960   0.003187   0.001018 -24.011400   4.543230 -10.082700 -19.973700  -0.006406  -0.001807 -13.981600   0.007083  -0.006239 -24.640700   2.713950  -5.879880 -24.780400  -0.003757  -0.001298 -16.503700  -0.002131  -0.001567 -24.662500   0.873726  -1.900180 -24.676900  -0.000514  -0.004451 -16.434900   0.007254  -0.000815 -23.753300   0.537363  -1.220850 -35.638600  -0.002581   0.011700 -23.735300  -0.001654   0.005800   7.398690  -0.943841   6.899930  70.481300   8.136090  -0.275221   2.466650  -9.330350   6.515610 -14.441400 -16.545900   4.056600 -44.250700  29.758500  59.405800  20.790800   0.007955  -0.007163   5.395380   0.002547  -0.002218  25.770400   3.809520   7.847120  21.298300   0.005701   0.000242  14.908900   0.006288  -0.003687  26.175500   3.864900   7.819960  26.439400   0.011301  -0.002758  17.608600   0.006831  -0.005439  26.933600   1.371270   2.696730  26.965900   0.007938   0.002353  17.959300   0.005618  -0.005225  27.546400  -0.505055  -0.969032  41.325900   0.001647  -0.011125  27.523000   0.005540  -0.007910   3.049070   6.364410   2.950670   0.506754   0.559130  11.779900  -3.084070  -1.815120   4.522680   0.000000   0.000000   0.000000   0.327650   2.119360  -5.402010   1.398980   4.173100  -3.061930  -4.007280  -1.885280  -1.824580  -0.000000   0.000000   0.000000
  0.634386  89.578600  -1.791390  -1.769940  -3.868170   0.448176   1.309840   3.440240  -0.562144   2.660710   6.866510  -1.206280   0.322817  -1.134120   0.003799   0.534357  -2.297280   1.545560  -7.032170   2.630900   0.565132 -69.474700  12.393100  -5.856120  -3.599210  -8.043420  -9.025090   7.950400 -13.197100  11.375900  38.582300  19.856700 -58.757100 -19.032300   0.005696   0.002003  -4.517910   0.003189   0.001013 -24.018500   4.547320 -10.090000 -19.980100  -0.006426  -0.001797 -13.986100   0.007059  -0.006236 -24.653900   2.714000  -5.879340 -24.793500  -0.003780  -0.001306 -16.512500  -0.002144  -0.001575 -24.671000   0.873830  -1.900450 -24.685300  -0.000534  -0.004456 -16.440500   0.007241  -0.000803 -23.762200   0.535313  -1.215650 -35.651900  -0.002561   0.011717 -23.744100  -0.001635   0.005793   7.398350  -0.941935   6.900010  70.465600   8.138510  -0.265455   2.474630  -9.338220   6.501870 -14.421200 -16.542900   4.051930 -44.263500  29.777500  59.418400  20.790500   0.007949  -0.007171   5.400110   0.002556  -0.002206  25.752800   3.814210   7.857780  21.284500   0.005670   0.000223  14.899200   0.006266  -0.003677  26.157900   3.869740   7.830620  26.422400   0.011289  -0.002773  17.597300   0.006801  -0.005435  26.922300   1.376840   2.709710  26.954200   0.007921   0.002353  17.951500   0.005593  -0.005223  27.526900  -0.505201  -0.969369  41.296700   0.001628  -0.011129  27.503600   0.005507  -0.007895   3.059980   6.374210   2.950890   0.504201   0.572206  11.768200  -3.092600  -1.819060   4.508190   0.000000   0.000000  -0.000000   0.335231   2.110330  -5.402040   1.396730   4.201660  -3.072370  -4.014830  -1.894010  -1.837100  -0.000000   0.000000   0.000000
